<svg width="24" height="24" viewBox="0 0 24 24" fill="none" xmlns="http://www.w3.org/2000/svg">
<path d="M16.9998 14.0003C16.9998 13.6874 16.6289 13.5393 16.3495 13.6803C15.9438 13.885 15.4852 14.0003 14.9998 14.0003C13.3429 14.0003 11.9998 12.6572 11.9998 11.0003C11.9998 10.5149 12.1151 10.0563 12.3198 9.65064C12.4608 9.37125 12.3127 9.00031 11.9998 9.00031C9.23837 9.00031 6.99979 11.2389 6.99979 14.0003C6.99979 16.7617 9.23837 19.0003 11.9998 19.0003C14.7612 19.0003 16.9998 16.7617 16.9998 14.0003Z" fill="black"/>
<path fill-rule="evenodd" clip-rule="evenodd" d="M2.30274 11.9575C4.08161 6.69196 9.43643 3.64568 14.6681 5.12224C18.0667 6.08143 20.603 8.7238 21.6967 11.9572C21.8639 12.4513 21.6235 13.0082 21.1328 13.1924C20.6352 13.3791 20.1026 13.1006 19.9337 12.6013C19.0319 9.93549 16.9497 7.77835 14.178 6.99608C9.91988 5.79429 5.53008 8.26721 4.06602 12.6009C3.8973 13.1003 3.36484 13.379 2.86719 13.1925C2.37641 13.0085 2.13577 12.4518 2.30274 11.9575Z" fill="black"/>
</svg>
